<mxfile modified="2024-07-22T11:43:47.524Z" host="app.diagrams.net" agent="Mozilla/5.0 (Windows NT 10.0; Win64; x64) AppleWebKit/537.36 (KHTML, like Gecko) Chrome/126.0.0.0 Safari/537.36" etag="XbYQKPJP9bYcGTa30G9P" version="24.7.1" type="github">
  <diagram id="Ht1M8jgEwFfnCIfOTk4-" name="Page-1">
    <mxGraphModel dx="1909" dy="1840" grid="1" gridSize="10" guides="1" tooltips="1" connect="1" arrows="1" fold="1" page="1" pageScale="1" pageWidth="1169" pageHeight="827" math="0" shadow="0">
      <root>
        <mxCell id="0" />
        <mxCell id="1" parent="0" />
        <mxCell id="FGb-1yq-wZKisclpOZaz-24" value="AWS Cloud" style="points=[[0,0],[0.25,0],[0.5,0],[0.75,0],[1,0],[1,0.25],[1,0.5],[1,0.75],[1,1],[0.75,1],[0.5,1],[0.25,1],[0,1],[0,0.75],[0,0.5],[0,0.25]];outlineConnect=0;gradientColor=none;html=1;whiteSpace=wrap;fontSize=12;fontStyle=0;container=1;pointerEvents=0;collapsible=0;recursiveResize=0;shape=mxgraph.aws4.group;grIcon=mxgraph.aws4.group_aws_cloud_alt;strokeColor=#232F3E;fillColor=none;verticalAlign=top;align=left;spacingLeft=30;fontColor=#232F3E;dashed=0;" vertex="1" parent="1">
          <mxGeometry x="150" y="-10" width="1080" height="661" as="geometry" />
        </mxCell>
        <mxCell id="FGb-1yq-wZKisclpOZaz-35" style="edgeStyle=orthogonalEdgeStyle;rounded=0;orthogonalLoop=1;jettySize=auto;html=1;dashed=1;" edge="1" parent="FGb-1yq-wZKisclpOZaz-24" source="FGb-1yq-wZKisclpOZaz-30" target="FGb-1yq-wZKisclpOZaz-34">
          <mxGeometry relative="1" as="geometry" />
        </mxCell>
        <mxCell id="FGb-1yq-wZKisclpOZaz-30" value="" style="sketch=0;points=[[0,0,0],[0.25,0,0],[0.5,0,0],[0.75,0,0],[1,0,0],[0,1,0],[0.25,1,0],[0.5,1,0],[0.75,1,0],[1,1,0],[0,0.25,0],[0,0.5,0],[0,0.75,0],[1,0.25,0],[1,0.5,0],[1,0.75,0]];outlineConnect=0;fontColor=#232F3E;fillColor=#ED7100;strokeColor=#ffffff;dashed=0;verticalLabelPosition=bottom;verticalAlign=top;align=center;html=1;fontSize=12;fontStyle=0;aspect=fixed;shape=mxgraph.aws4.resourceIcon;resIcon=mxgraph.aws4.lambda;" vertex="1" parent="FGb-1yq-wZKisclpOZaz-24">
          <mxGeometry x="300" y="80" width="78" height="78" as="geometry" />
        </mxCell>
        <mxCell id="FGb-1yq-wZKisclpOZaz-42" style="edgeStyle=orthogonalEdgeStyle;rounded=0;orthogonalLoop=1;jettySize=auto;html=1;dashed=1;" edge="1" parent="FGb-1yq-wZKisclpOZaz-24" source="FGb-1yq-wZKisclpOZaz-32" target="FGb-1yq-wZKisclpOZaz-41">
          <mxGeometry relative="1" as="geometry" />
        </mxCell>
        <mxCell id="FGb-1yq-wZKisclpOZaz-32" value="" style="sketch=0;points=[[0,0,0],[0.25,0,0],[0.5,0,0],[0.75,0,0],[1,0,0],[0,1,0],[0.25,1,0],[0.5,1,0],[0.75,1,0],[1,1,0],[0,0.25,0],[0,0.5,0],[0,0.75,0],[1,0.25,0],[1,0.5,0],[1,0.75,0]];outlineConnect=0;fontColor=#232F3E;fillColor=#ED7100;strokeColor=#ffffff;dashed=0;verticalLabelPosition=bottom;verticalAlign=top;align=center;html=1;fontSize=12;fontStyle=0;aspect=fixed;shape=mxgraph.aws4.resourceIcon;resIcon=mxgraph.aws4.lambda;" vertex="1" parent="FGb-1yq-wZKisclpOZaz-24">
          <mxGeometry x="300" y="291" width="78" height="78" as="geometry" />
        </mxCell>
        <mxCell id="FGb-1yq-wZKisclpOZaz-34" value="" style="sketch=0;points=[[0,0,0],[0.25,0,0],[0.5,0,0],[0.75,0,0],[1,0,0],[0,1,0],[0.25,1,0],[0.5,1,0],[0.75,1,0],[1,1,0],[0,0.25,0],[0,0.5,0],[0,0.75,0],[1,0.25,0],[1,0.5,0],[1,0.75,0]];outlineConnect=0;fontColor=#232F3E;fillColor=#C925D1;strokeColor=#ffffff;dashed=0;verticalLabelPosition=bottom;verticalAlign=top;align=center;html=1;fontSize=12;fontStyle=0;aspect=fixed;shape=mxgraph.aws4.resourceIcon;resIcon=mxgraph.aws4.dynamodb;" vertex="1" parent="FGb-1yq-wZKisclpOZaz-24">
          <mxGeometry x="530" y="80" width="78" height="78" as="geometry" />
        </mxCell>
        <mxCell id="FGb-1yq-wZKisclpOZaz-41" value="" style="sketch=0;points=[[0,0,0],[0.25,0,0],[0.5,0,0],[0.75,0,0],[1,0,0],[0,1,0],[0.25,1,0],[0.5,1,0],[0.75,1,0],[1,1,0],[0,0.25,0],[0,0.5,0],[0,0.75,0],[1,0.25,0],[1,0.5,0],[1,0.75,0]];outlineConnect=0;fontColor=#232F3E;fillColor=#C925D1;strokeColor=#ffffff;dashed=0;verticalLabelPosition=bottom;verticalAlign=top;align=center;html=1;fontSize=12;fontStyle=0;aspect=fixed;shape=mxgraph.aws4.resourceIcon;resIcon=mxgraph.aws4.dynamodb;" vertex="1" parent="FGb-1yq-wZKisclpOZaz-24">
          <mxGeometry x="530" y="291" width="78" height="78" as="geometry" />
        </mxCell>
        <mxCell id="FGb-1yq-wZKisclpOZaz-40" value="" style="sketch=0;points=[[0,0,0],[0.25,0,0],[0.5,0,0],[0.75,0,0],[1,0,0],[0,1,0],[0.25,1,0],[0.5,1,0],[0.75,1,0],[1,1,0],[0,0.25,0],[0,0.5,0],[0,0.75,0],[1,0.25,0],[1,0.5,0],[1,0.75,0]];outlineConnect=0;fontColor=#232F3E;fillColor=#C925D1;strokeColor=#ffffff;dashed=0;verticalLabelPosition=bottom;verticalAlign=top;align=center;html=1;fontSize=12;fontStyle=0;aspect=fixed;shape=mxgraph.aws4.resourceIcon;resIcon=mxgraph.aws4.dynamodb;" vertex="1" parent="FGb-1yq-wZKisclpOZaz-24">
          <mxGeometry x="530" y="500" width="78" height="78" as="geometry" />
        </mxCell>
        <mxCell id="FGb-1yq-wZKisclpOZaz-22" value="&lt;div&gt;&lt;font size=&quot;1&quot; color=&quot;#00060f&quot;&gt;&lt;b style=&quot;font-size: 14px;&quot;&gt;Product&lt;/b&gt;&lt;/font&gt;&lt;/div&gt;" style="fillColor=none;strokeColor=#000000;dashed=1;verticalAlign=top;fontStyle=0;fontColor=#5A6C86;whiteSpace=wrap;html=1;strokeWidth=2;" vertex="1" parent="FGb-1yq-wZKisclpOZaz-24">
          <mxGeometry x="170" y="50" width="470" height="163.5" as="geometry" />
        </mxCell>
        <mxCell id="FGb-1yq-wZKisclpOZaz-47" value="" style="sketch=0;points=[[0,0,0],[0.25,0,0],[0.5,0,0],[0.75,0,0],[1,0,0],[0,1,0],[0.25,1,0],[0.5,1,0],[0.75,1,0],[1,1,0],[0,0.25,0],[0,0.5,0],[0,0.75,0],[1,0.25,0],[1,0.5,0],[1,0.75,0]];outlineConnect=0;fontColor=#232F3E;fillColor=#E7157B;strokeColor=#ffffff;dashed=0;verticalLabelPosition=bottom;verticalAlign=top;align=center;html=1;fontSize=12;fontStyle=0;aspect=fixed;shape=mxgraph.aws4.resourceIcon;resIcon=mxgraph.aws4.eventbridge;" vertex="1" parent="FGb-1yq-wZKisclpOZaz-24">
          <mxGeometry x="910.5" y="182" width="78" height="78" as="geometry" />
        </mxCell>
        <mxCell id="FGb-1yq-wZKisclpOZaz-31" value="" style="sketch=0;points=[[0,0,0],[0.25,0,0],[0.5,0,0],[0.75,0,0],[1,0,0],[0,1,0],[0.25,1,0],[0.5,1,0],[0.75,1,0],[1,1,0],[0,0.25,0],[0,0.5,0],[0,0.75,0],[1,0.25,0],[1,0.5,0],[1,0.75,0]];outlineConnect=0;fontColor=#232F3E;fillColor=#ED7100;strokeColor=#ffffff;dashed=0;verticalLabelPosition=bottom;verticalAlign=top;align=center;html=1;fontSize=12;fontStyle=0;aspect=fixed;shape=mxgraph.aws4.resourceIcon;resIcon=mxgraph.aws4.lambda;" vertex="1" parent="FGb-1yq-wZKisclpOZaz-24">
          <mxGeometry x="310" y="500" width="78" height="78" as="geometry" />
        </mxCell>
        <mxCell id="FGb-1yq-wZKisclpOZaz-50" value="" style="sketch=0;points=[[0,0,0],[0.25,0,0],[0.5,0,0],[0.75,0,0],[1,0,0],[0,1,0],[0.25,1,0],[0.5,1,0],[0.75,1,0],[1,1,0],[0,0.25,0],[0,0.5,0],[0,0.75,0],[1,0.25,0],[1,0.5,0],[1,0.75,0]];outlineConnect=0;fontColor=#232F3E;fillColor=#ED7100;strokeColor=#ffffff;dashed=0;verticalLabelPosition=bottom;verticalAlign=top;align=center;html=1;fontSize=12;fontStyle=0;aspect=fixed;shape=mxgraph.aws4.resourceIcon;resIcon=mxgraph.aws4.lambda;" vertex="1" parent="FGb-1yq-wZKisclpOZaz-24">
          <mxGeometry x="300" y="291" width="78" height="78" as="geometry" />
        </mxCell>
        <mxCell id="FGb-1yq-wZKisclpOZaz-49" value="" style="sketch=0;points=[[0,0,0],[0.25,0,0],[0.5,0,0],[0.75,0,0],[1,0,0],[0,1,0],[0.25,1,0],[0.5,1,0],[0.75,1,0],[1,1,0],[0,0.25,0],[0,0.5,0],[0,0.75,0],[1,0.25,0],[1,0.5,0],[1,0.75,0]];outlineConnect=0;fontColor=#232F3E;fillColor=#ED7100;strokeColor=#ffffff;dashed=0;verticalLabelPosition=bottom;verticalAlign=top;align=center;html=1;fontSize=12;fontStyle=0;aspect=fixed;shape=mxgraph.aws4.resourceIcon;resIcon=mxgraph.aws4.lambda;" vertex="1" parent="FGb-1yq-wZKisclpOZaz-24">
          <mxGeometry x="300" y="80" width="78" height="78" as="geometry" />
        </mxCell>
        <mxCell id="FGb-1yq-wZKisclpOZaz-48" value="&lt;font color=&quot;#00060f&quot;&gt;&lt;span style=&quot;font-size: 14px;&quot;&gt;&lt;b&gt;Event Bus&lt;/b&gt;&lt;/span&gt;&lt;/font&gt;" style="fillColor=none;strokeColor=#000000;dashed=1;verticalAlign=top;fontStyle=0;fontColor=#5A6C86;whiteSpace=wrap;html=1;strokeWidth=2;" vertex="1" parent="FGb-1yq-wZKisclpOZaz-24">
          <mxGeometry x="850" y="50" width="199" height="550" as="geometry" />
        </mxCell>
        <mxCell id="FGb-1yq-wZKisclpOZaz-51" value="" style="outlineConnect=0;dashed=0;verticalLabelPosition=bottom;verticalAlign=top;align=center;html=1;shape=mxgraph.aws3.cloudformation;fillColor=#759C3E;gradientColor=none;" vertex="1" parent="FGb-1yq-wZKisclpOZaz-24">
          <mxGeometry y="568" width="76.5" height="93" as="geometry" />
        </mxCell>
        <mxCell id="FGb-1yq-wZKisclpOZaz-53" value="" style="sketch=0;outlineConnect=0;fontColor=#232F3E;gradientColor=none;fillColor=#E7157B;strokeColor=none;dashed=0;verticalLabelPosition=bottom;verticalAlign=top;align=center;html=1;fontSize=12;fontStyle=0;aspect=fixed;pointerEvents=1;shape=mxgraph.aws4.eventbridge_default_event_bus_resource;" vertex="1" parent="FGb-1yq-wZKisclpOZaz-24">
          <mxGeometry x="910.5" y="436.5" width="78" height="53" as="geometry" />
        </mxCell>
        <mxCell id="FGb-1yq-wZKisclpOZaz-55" style="edgeStyle=orthogonalEdgeStyle;rounded=0;orthogonalLoop=1;jettySize=auto;html=1;entryX=0;entryY=0.5;entryDx=0;entryDy=0;entryPerimeter=0;dashed=1;" edge="1" parent="FGb-1yq-wZKisclpOZaz-24" source="FGb-1yq-wZKisclpOZaz-31" target="FGb-1yq-wZKisclpOZaz-40">
          <mxGeometry relative="1" as="geometry" />
        </mxCell>
        <mxCell id="FGb-1yq-wZKisclpOZaz-18" value="&lt;b style=&quot;font-size: 14px;&quot;&gt;&lt;font style=&quot;font-size: 14px;&quot; color=&quot;#00060f&quot;&gt;Ordering&lt;/font&gt;&lt;/b&gt;&lt;div style=&quot;font-size: 14px;&quot;&gt;&lt;br&gt;&lt;/div&gt;" style="fillColor=none;strokeColor=#000000;dashed=1;verticalAlign=top;fontStyle=0;fontColor=#5A6C86;whiteSpace=wrap;html=1;strokeWidth=2;" vertex="1" parent="FGb-1yq-wZKisclpOZaz-24">
          <mxGeometry x="170" y="440" width="470" height="163.5" as="geometry" />
        </mxCell>
        <mxCell id="FGb-1yq-wZKisclpOZaz-65" value="" style="sketch=0;points=[[0,0,0],[0.25,0,0],[0.5,0,0],[0.75,0,0],[1,0,0],[0,1,0],[0.25,1,0],[0.5,1,0],[0.75,1,0],[1,1,0],[0,0.25,0],[0,0.5,0],[0,0.75,0],[1,0.25,0],[1,0.5,0],[1,0.75,0]];outlineConnect=0;fontColor=#232F3E;fillColor=#E7157B;strokeColor=#ffffff;dashed=0;verticalLabelPosition=bottom;verticalAlign=top;align=center;html=1;fontSize=12;fontStyle=0;aspect=fixed;shape=mxgraph.aws4.resourceIcon;resIcon=mxgraph.aws4.sqs;" vertex="1" parent="FGb-1yq-wZKisclpOZaz-24">
          <mxGeometry x="690" y="500" width="78" height="78" as="geometry" />
        </mxCell>
        <mxCell id="FGb-1yq-wZKisclpOZaz-66" style="edgeStyle=orthogonalEdgeStyle;rounded=0;orthogonalLoop=1;jettySize=auto;html=1;entryX=0;entryY=0.5;entryDx=0;entryDy=0;entryPerimeter=0;dashed=1;" edge="1" parent="FGb-1yq-wZKisclpOZaz-24" source="FGb-1yq-wZKisclpOZaz-40" target="FGb-1yq-wZKisclpOZaz-65">
          <mxGeometry relative="1" as="geometry" />
        </mxCell>
        <mxCell id="FGb-1yq-wZKisclpOZaz-67" value="" style="endArrow=classic;html=1;rounded=0;entryX=1;entryY=0.5;entryDx=0;entryDy=0;entryPerimeter=0;exitX=0;exitY=0.889;exitDx=0;exitDy=0;exitPerimeter=0;dashed=1;" edge="1" parent="FGb-1yq-wZKisclpOZaz-24" source="FGb-1yq-wZKisclpOZaz-48" target="FGb-1yq-wZKisclpOZaz-65">
          <mxGeometry width="50" height="50" relative="1" as="geometry">
            <mxPoint x="830" y="546" as="sourcePoint" />
            <mxPoint x="1210" y="410" as="targetPoint" />
          </mxGeometry>
        </mxCell>
        <mxCell id="FGb-1yq-wZKisclpOZaz-29" value="" style="sketch=0;points=[[0,0,0],[0.25,0,0],[0.5,0,0],[0.75,0,0],[1,0,0],[0,1,0],[0.25,1,0],[0.5,1,0],[0.75,1,0],[1,1,0],[0,0.25,0],[0,0.5,0],[0,0.75,0],[1,0.25,0],[1,0.5,0],[1,0.75,0]];outlineConnect=0;fontColor=#232F3E;fillColor=#E7157B;strokeColor=#ffffff;dashed=0;verticalLabelPosition=bottom;verticalAlign=top;align=center;html=1;fontSize=12;fontStyle=0;aspect=fixed;shape=mxgraph.aws4.resourceIcon;resIcon=mxgraph.aws4.api_gateway;" vertex="1" parent="FGb-1yq-wZKisclpOZaz-24">
          <mxGeometry x="50" y="190" width="78" height="78" as="geometry" />
        </mxCell>
        <mxCell id="FGb-1yq-wZKisclpOZaz-37" style="edgeStyle=orthogonalEdgeStyle;rounded=0;orthogonalLoop=1;jettySize=auto;html=1;entryX=0;entryY=0.5;entryDx=0;entryDy=0;entryPerimeter=0;dashed=1;" edge="1" parent="FGb-1yq-wZKisclpOZaz-24" source="FGb-1yq-wZKisclpOZaz-29" target="FGb-1yq-wZKisclpOZaz-30">
          <mxGeometry relative="1" as="geometry">
            <Array as="points">
              <mxPoint x="220" y="229" />
              <mxPoint x="220" y="119" />
            </Array>
          </mxGeometry>
        </mxCell>
        <mxCell id="FGb-1yq-wZKisclpOZaz-39" style="edgeStyle=orthogonalEdgeStyle;rounded=0;orthogonalLoop=1;jettySize=auto;html=1;entryX=0;entryY=0.5;entryDx=0;entryDy=0;entryPerimeter=0;dashed=1;" edge="1" parent="FGb-1yq-wZKisclpOZaz-24" source="FGb-1yq-wZKisclpOZaz-29" target="FGb-1yq-wZKisclpOZaz-32">
          <mxGeometry relative="1" as="geometry">
            <Array as="points">
              <mxPoint x="220" y="229" />
              <mxPoint x="220" y="330" />
            </Array>
          </mxGeometry>
        </mxCell>
        <mxCell id="FGb-1yq-wZKisclpOZaz-44" style="edgeStyle=orthogonalEdgeStyle;rounded=0;orthogonalLoop=1;jettySize=auto;html=1;entryX=0;entryY=0.5;entryDx=0;entryDy=0;entryPerimeter=0;dashed=1;" edge="1" parent="FGb-1yq-wZKisclpOZaz-24" source="FGb-1yq-wZKisclpOZaz-23" target="FGb-1yq-wZKisclpOZaz-31">
          <mxGeometry relative="1" as="geometry">
            <Array as="points">
              <mxPoint x="220" y="229" />
              <mxPoint x="220" y="539" />
            </Array>
          </mxGeometry>
        </mxCell>
        <mxCell id="FGb-1yq-wZKisclpOZaz-68" value="" style="edgeStyle=orthogonalEdgeStyle;rounded=0;orthogonalLoop=1;jettySize=auto;html=1;entryX=0;entryY=0.5;entryDx=0;entryDy=0;entryPerimeter=0;dashed=1;" edge="1" parent="FGb-1yq-wZKisclpOZaz-24" source="FGb-1yq-wZKisclpOZaz-29" target="FGb-1yq-wZKisclpOZaz-23">
          <mxGeometry relative="1" as="geometry">
            <mxPoint x="278" y="219" as="sourcePoint" />
            <mxPoint x="460" y="529" as="targetPoint" />
            <Array as="points" />
          </mxGeometry>
        </mxCell>
        <mxCell id="FGb-1yq-wZKisclpOZaz-23" value="&lt;div&gt;&lt;font size=&quot;1&quot; color=&quot;#00060f&quot;&gt;&lt;b style=&quot;font-size: 14px;&quot;&gt;Basket&lt;/b&gt;&lt;/font&gt;&lt;/div&gt;" style="fillColor=none;strokeColor=#000000;dashed=1;verticalAlign=top;fontStyle=0;fontColor=#5A6C86;whiteSpace=wrap;html=1;strokeWidth=2;" vertex="1" parent="FGb-1yq-wZKisclpOZaz-24">
          <mxGeometry x="170" y="248.25" width="470" height="163.5" as="geometry" />
        </mxCell>
        <mxCell id="FGb-1yq-wZKisclpOZaz-45" value="" style="shape=actor;whiteSpace=wrap;html=1;" vertex="1" parent="1">
          <mxGeometry x="50" y="189" width="40" height="60" as="geometry" />
        </mxCell>
        <mxCell id="FGb-1yq-wZKisclpOZaz-46" style="edgeStyle=orthogonalEdgeStyle;rounded=0;orthogonalLoop=1;jettySize=auto;html=1;entryX=0;entryY=0.5;entryDx=0;entryDy=0;entryPerimeter=0;dashed=1;" edge="1" parent="1" source="FGb-1yq-wZKisclpOZaz-45" target="FGb-1yq-wZKisclpOZaz-29">
          <mxGeometry relative="1" as="geometry" />
        </mxCell>
        <mxCell id="FGb-1yq-wZKisclpOZaz-73" value="" style="endArrow=classic;html=1;rounded=0;entryX=-0.011;entryY=0.518;entryDx=0;entryDy=0;entryPerimeter=0;dashed=1;" edge="1" parent="1" target="FGb-1yq-wZKisclpOZaz-48">
          <mxGeometry width="50" height="50" relative="1" as="geometry">
            <mxPoint x="760" y="325" as="sourcePoint" />
            <mxPoint x="530" y="280" as="targetPoint" />
          </mxGeometry>
        </mxCell>
      </root>
    </mxGraphModel>
  </diagram>
</mxfile>
